<svg width="32" height="32" viewBox="0 0 32 32" fill="none" xmlns="http://www.w3.org/2000/svg">
<path d="M5.66406 10.3467L7.08108 27.4525C7.18262 28.6861 8.2334 29.6533 9.47169 29.6533H22.528C23.7662 29.6533 24.817 28.6861 24.9186 27.4525L26.3355 10.3467H5.66406ZM11.999 26.4533C11.5803 26.4533 11.228 26.1276 11.2014 25.7033L10.4014 12.7967C10.374 12.3553 10.7092 11.9756 11.1498 11.9482C11.6068 11.9162 11.9701 12.2553 11.9982 12.6967L12.7982 25.6033C12.8266 26.0604 12.4649 26.4533 11.999 26.4533ZM16.7998 25.6533C16.7998 26.0955 16.442 26.4533 15.9998 26.4533C15.5576 26.4533 15.1998 26.0955 15.1998 25.6533V12.7467C15.1998 12.3045 15.5576 11.9467 15.9998 11.9467C16.442 11.9467 16.7998 12.3045 16.7998 12.7467V25.6533ZM21.5982 12.7967L20.7982 25.7034C20.7719 26.1233 20.4219 26.4733 19.9498 26.4518C19.5091 26.4244 19.174 26.0448 19.2013 25.6034L20.0013 12.6967C20.0287 12.2553 20.4154 11.9342 20.8498 11.9483C21.2904 11.9756 21.6256 12.3553 21.5982 12.7967Z" fill="white"/>
<path d="M26.4 5.54668H21.6V4.74668C21.6 3.42327 20.5234 2.34668 19.2 2.34668H12.8C11.4766 2.34668 10.4 3.42327 10.4 4.74668V5.54668H5.6C4.71632 5.54668 4 6.263 4 7.14668C4 8.03025 4.71632 8.74668 5.6 8.74668C12.9582 8.74668 19.0421 8.74668 26.4 8.74668C27.2837 8.74668 28 8.03025 28 7.14668C28 6.263 27.2837 5.54668 26.4 5.54668ZM20 5.54668H12V4.74668C12 4.30529 12.3586 3.94668 12.8 3.94668H19.2C19.6414 3.94668 20 4.30529 20 4.74668V5.54668Z" fill="white"/>
</svg>
