<svg width="32" height="32" viewBox="0 0 32 32" fill="none" xmlns="http://www.w3.org/2000/svg">
<g clip-path="url(#clip0_78_77)">
<path d="M30.4589 20.5812L24.9141 21.7956C24.2901 21.9331 23.8024 22.4208 23.6649 23.0459L22.4505 28.5908C22.2128 29.6777 21.1432 30.0751 20.2964 29.7866C19.805 29.6195 19.389 29.2196 19.2516 28.5908L18.0372 23.0459C17.8997 22.4207 17.412 21.933 16.7868 21.7956L11.2419 20.5812C9.52612 20.206 9.52612 17.7586 11.2419 17.3823L16.7868 16.1678C17.412 16.0304 17.8997 15.5427 18.0372 14.9187L19.2516 9.37388C19.4447 8.49119 20.1838 8.06287 20.9092 8.08762C21.595 8.10994 22.2673 8.5395 22.4505 9.37388L23.6649 14.9187C23.8024 15.5427 24.2901 16.0304 24.9141 16.1678L30.4589 17.3823C32.176 17.7587 32.176 20.2061 30.4589 20.5812Z" fill="#F9EF63"/>
<path d="M20.6695 29.7865C20.7276 29.8471 20.7895 29.8768 20.8502 29.8768C20.662 29.8768 20.4751 29.8471 20.2968 29.7865C19.8054 29.6193 19.3895 29.2194 19.252 28.5906L18.0376 23.0457C17.9002 22.4205 17.4125 21.9328 16.7873 21.7954L11.2424 20.581C9.52661 20.2059 9.52661 17.7584 11.2424 17.3821L16.7873 16.1676C17.4125 16.0303 17.9002 15.5425 18.0376 14.9186L19.252 9.37375C19.4402 8.51456 20.1446 8.08624 20.8503 8.08624C20.6188 8.08624 20.3897 8.51456 20.3278 9.37375L19.9305 14.9186C19.8859 15.5425 19.7262 16.0303 19.5207 16.1676L17.707 17.3821C16.6551 18.2495 16.0763 19.4855 17.707 20.581L19.5206 21.7954C19.7261 21.9328 19.8858 22.4205 19.9303 23.0457L20.3277 28.5906C20.3723 29.2194 20.5085 29.6194 20.6695 29.7865Z" fill="#F1D333"/>
<path d="M14.4497 8.65107L10.6107 9.49188C10.1787 9.587 9.84105 9.92469 9.74592 10.3576L8.90511 14.1966C8.74055 14.9491 7.99998 15.2243 7.41373 15.0245C7.07348 14.9088 6.78548 14.6319 6.69036 14.1966L5.84955 10.3576C5.75442 9.92475 5.41673 9.587 4.98386 9.49188L1.14486 8.65107C-0.0430781 8.39138 -0.0430781 6.69688 1.14486 6.43632L4.98386 5.5955C5.41667 5.50038 5.75442 5.16269 5.84955 4.73069L6.69036 0.891691C6.82405 0.280566 7.33573 -0.0159966 7.83805 0.0011284C8.31286 0.0165659 8.7783 0.313941 8.90517 0.891691L9.74598 4.73069C9.84111 5.16269 10.1788 5.50038 10.6108 5.5955L14.4498 6.43632C15.6385 6.69688 15.6385 8.39138 14.4497 8.65107Z" fill="#F9EF63"/>
<path d="M7.67174 15.0242C7.71199 15.0662 7.75486 15.0868 7.79686 15.0868C7.66655 15.0868 7.53717 15.0662 7.41374 15.0242C7.07349 14.9086 6.78549 14.6317 6.69036 14.1963L5.84955 10.3573C5.75442 9.92444 5.41674 9.58675 4.98386 9.49162L1.14486 8.65081C-0.0430782 8.39112 -0.0430782 6.69662 1.14486 6.43606L4.98386 5.59525C5.41667 5.50012 5.75442 5.16244 5.84955 4.73044L6.69036 0.891437C6.82061 0.296562 7.3083 0 7.79686 0C7.63655 0 7.47799 0.296562 7.43517 0.891375L7.16005 4.73037C7.12917 5.16231 7.01861 5.50006 6.87636 5.59519L5.62074 6.436C4.89249 7.0365 4.49174 7.89237 5.62074 8.65075L6.87636 9.49156C7.01867 9.58669 7.12924 9.92437 7.16005 10.3572L7.43517 14.1962C7.46605 14.6317 7.5603 14.9086 7.67174 15.0242Z" fill="#F1D333"/>
<path d="M12.0312 25.8415L9.90002 26.3083C9.6602 26.3611 9.4727 26.5486 9.41989 26.7888L8.95308 28.92C8.8617 29.3378 8.45064 29.4905 8.12514 29.3796C7.93627 29.3154 7.77633 29.1617 7.72358 28.92L7.25677 26.7888C7.20395 26.5485 7.01645 26.3611 6.7762 26.3083L4.64502 25.8415C3.98552 25.6973 3.98552 24.7566 4.64502 24.612L6.7762 24.1451C7.01652 24.0923 7.20395 23.9048 7.25677 23.665L7.72358 21.5338C7.79783 21.1946 8.08189 21.03 8.3607 21.0395C8.62433 21.048 8.8827 21.2131 8.95308 21.5338L9.41989 23.665C9.4727 23.9048 9.6602 24.0923 9.90002 24.1451L12.0312 24.612C12.6911 24.7566 12.6911 25.6973 12.0312 25.8415Z" fill="#F9EF63"/>
<path d="M8.26839 29.3794C8.29077 29.4027 8.31452 29.4141 8.33783 29.4141C8.26552 29.4141 8.19364 29.4027 8.12514 29.3794C7.93627 29.3151 7.77639 29.1614 7.72358 28.9198L7.25677 26.7886C7.20395 26.5483 7.01645 26.3608 6.7762 26.308L4.64502 25.8412C3.98552 25.697 3.98552 24.7563 4.64502 24.6116L6.7762 24.1448C7.01652 24.092 7.20395 23.9045 7.25677 23.6647L7.72358 21.5335C7.79589 21.2033 8.06664 21.0386 8.33789 21.0386C8.24889 21.0386 8.16089 21.2033 8.13708 21.5335L7.98433 23.6647C7.9672 23.9045 7.90583 24.092 7.82683 24.1448L7.12977 24.6116C6.72552 24.945 6.50302 25.4201 7.12977 25.8412L7.82683 26.308C7.90583 26.3608 7.9672 26.5483 7.98433 26.7886L8.13708 28.9198C8.1542 29.1615 8.20652 29.3152 8.26839 29.3794Z" fill="#F1D333"/>
<path d="M26.8489 5.13041H26.5895C26.3505 5.13041 26.1568 4.93666 26.1568 4.69772V4.43828C26.1568 4.17778 25.956 3.95066 25.6957 3.94285C25.4262 3.93478 25.2054 4.15078 25.2054 4.41835V4.69772C25.2054 4.93672 25.0116 5.13041 24.7727 5.13041H24.5132C24.2527 5.13041 24.0256 5.3311 24.0178 5.59147C24.0097 5.86091 24.2257 6.08185 24.4933 6.08185H24.7727C25.0117 6.08185 25.2054 6.2756 25.2054 6.51453V6.77397C25.2054 7.03447 25.4061 7.2616 25.6665 7.26941C25.9359 7.27747 26.1568 7.06147 26.1568 6.79391V6.51453C26.1568 6.27553 26.3505 6.08185 26.5895 6.08185H26.8688C27.1364 6.08185 27.3524 5.86091 27.3443 5.59147C27.3365 5.3311 27.1093 5.13041 26.8489 5.13041Z" fill="#F9EF63"/>
<path d="M15.8938 29.8608H15.6344C15.3954 29.8608 15.2017 29.6671 15.2017 29.4281V29.1687C15.2017 28.9082 15.001 28.6811 14.7406 28.6733C14.4712 28.6652 14.2503 28.8812 14.2503 29.1488V29.4281C14.2503 29.6671 14.0565 29.8608 13.8176 29.8608H13.5582C13.2977 29.8608 13.0705 30.0615 13.0627 30.3219C13.0547 30.5913 13.2706 30.8123 13.5382 30.8123H13.8176C14.0566 30.8123 14.2503 31.006 14.2503 31.2449V31.5044C14.2503 31.7649 14.451 31.992 14.7114 31.9998C14.9808 32.0079 15.2017 31.7919 15.2017 31.5243V31.2449C15.2017 31.0059 15.3955 30.8123 15.6344 30.8123H15.9137C16.1813 30.8123 16.3973 30.5913 16.3892 30.3219C16.3813 30.0615 16.1542 29.8608 15.8938 29.8608Z" fill="#F9EF63"/>
<path d="M3.58177 16.4742H3.32239C3.08339 16.4742 2.88971 16.2805 2.88971 16.0415V15.7821C2.88971 15.5216 2.68896 15.2945 2.42858 15.2867C2.15914 15.2786 1.93827 15.4946 1.93827 15.7622V16.0415C1.93827 16.2805 1.74452 16.4742 1.50558 16.4742H1.24614C0.985644 16.4742 0.758519 16.6749 0.750707 16.9353C0.742644 17.2047 0.958582 17.4257 1.22621 17.4257H1.50558C1.74458 17.4257 1.93827 17.6194 1.93827 17.8583V18.1178C1.93827 18.3783 2.13902 18.6054 2.39939 18.6132C2.66883 18.6213 2.88971 18.4053 2.88971 18.1377V17.8583C2.88971 17.6193 3.08346 17.4257 3.32239 17.4257H3.60171C3.86933 17.4257 4.08527 17.2047 4.07721 16.9353C4.06939 16.6749 3.84221 16.4742 3.58177 16.4742Z" fill="#F9EF63"/>
</g>
<defs>
<clipPath id="clip0_78_77">
<rect width="32" height="32" fill="white"/>
</clipPath>
</defs>
</svg>
