<svg width="32" height="32" viewBox="0 0 32 32" fill="none" xmlns="http://www.w3.org/2000/svg">
<path d="M24 2H18C17.447 2 17 2.448 17 3V9C17 9.552 17.447 10 18 10H24C24.553 10 25 9.552 25 9V3C25 2.448 24.553 2 24 2Z" fill="white"/>
<path d="M24 22H18C17.447 22 17 22.448 17 23V29C17 29.552 17.447 30 18 30H24C24.553 30 25 29.552 25 29V23C25 22.448 24.553 22 24 22Z" fill="white"/>
<path d="M24 12H18C17.447 12 17 12.448 17 13V19C17 19.552 17.447 20 18 20H24C24.553 20 25 19.552 25 19V13C25 12.448 24.553 12 24 12Z" fill="white"/>
<path d="M14 2H8C7.447 2 7 2.448 7 3V9C7 9.552 7.447 10 8 10H14C14.553 10 15 9.552 15 9V3C15 2.448 14.553 2 14 2Z" fill="white"/>
<path d="M14 22H8C7.447 22 7 22.448 7 23V29C7 29.552 7.447 30 8 30H14C14.553 30 15 29.552 15 29V23C15 22.448 14.553 22 14 22Z" fill="white"/>
<path d="M14 12H8C7.447 12 7 12.448 7 13V19C7 19.552 7.447 20 8 20H14C14.553 20 15 19.552 15 19V13C15 12.448 14.553 12 14 12Z" fill="white"/>
</svg>
